<svg width="234" height="30" viewBox="0 0 234 30" fill="none" xmlns="http://www.w3.org/2000/svg">
<path d="M11 29.32C8.94666 29.32 7.13333 28.88 5.55999 28C4.01333 27.12 2.81333 25.88 1.95999 24.28C1.10666 22.6533 0.679993 20.7866 0.679993 18.68V11.32C0.679993 9.21331 1.10666 7.35998 1.95999 5.75998C2.83999 4.13331 4.06666 2.87998 5.63999 1.99998C7.23999 1.11998 9.07999 0.679977 11.16 0.679977H15.4C17.4 0.679977 19.16 1.10664 20.68 1.95997C22.2 2.81331 23.3733 4.01331 24.2 5.55998C25.0533 7.07998 25.48 8.85331 25.48 10.88H20.04C20.04 9.27998 19.6133 7.99998 18.76 7.03998C17.9067 6.05331 16.7867 5.55998 15.4 5.55998H11.16C9.66666 5.55998 8.46666 6.11998 7.55999 7.23998C6.65333 8.33331 6.19999 9.77331 6.19999 11.56V18.44C6.19999 20.2266 6.63999 21.68 7.51999 22.8C8.39999 23.8933 9.55999 24.44 11 24.44H15.32C16.7333 24.44 17.88 23.8933 18.76 22.8C19.6667 21.7066 20.12 20.2666 20.12 18.48H25.56C25.56 20.64 25.1333 22.5466 24.28 24.2C23.4267 25.8266 22.2267 27.0933 20.68 28C19.1333 28.88 17.3467 29.32 15.32 29.32H11Z" fill="#141414"/>
<path d="M35.1791 29.32C33.0991 29.32 31.4191 28.8 30.1391 27.76C28.8591 26.72 28.2191 25.3466 28.2191 23.64V22.16C28.2191 20.48 28.8857 19.1333 30.2191 18.12C31.5524 17.08 33.3124 16.56 35.4991 16.56H37.9391C38.6324 16.56 39.3791 16.6533 40.1791 16.84C40.9791 17.0266 41.7124 17.28 42.3791 17.6V15.52C42.3791 14.8533 42.1524 14.32 41.6991 13.92C41.2724 13.4933 40.6991 13.28 39.9791 13.28H36.5391C35.7924 13.28 35.1924 13.4533 34.7391 13.8C34.2857 14.1466 34.0591 14.6133 34.0591 15.2H28.7791C28.7791 13.2533 29.4857 11.6933 30.8991 10.52C32.3391 9.31998 34.2191 8.71998 36.5391 8.71998H39.9791C42.3257 8.71998 44.2191 9.34664 45.6591 10.6C47.0991 11.8266 47.8191 13.4666 47.8191 15.52V29H42.7791V26.6C42.1391 27.4266 41.3524 28.0933 40.4191 28.6C39.4857 29.08 38.5657 29.32 37.6591 29.32H35.1791ZM38.0591 25.16C39.0457 25.16 39.9257 24.9066 40.6991 24.4C41.4724 23.8933 42.0324 23.2133 42.3791 22.36V21.68C41.9524 21.36 41.3524 21.1066 40.5791 20.92C39.8324 20.7333 39.0324 20.64 38.1791 20.64H35.6591C35.0191 20.64 34.4991 20.8 34.0991 21.12C33.6991 21.44 33.4991 21.8666 33.4991 22.4V23.44C33.4991 23.9466 33.7124 24.36 34.1391 24.68C34.5924 25 35.1791 25.16 35.8991 25.16H38.0591Z" fill="#141414"/>
<path d="M52.2184 9.03998H57.2584V11.6C57.7651 10.8266 58.4851 10.2 59.4184 9.71998C60.3784 9.21331 61.3784 8.95998 62.4184 8.95998H65.1384V13.68H62.4184C61.0051 13.68 59.8584 14.1066 58.9784 14.96C58.0984 15.8133 57.6584 16.9066 57.6584 18.24V29H52.2184V9.03998Z" fill="#141414"/>
<path d="M74.6259 29.32C72.9459 29.32 71.4526 29 70.1459 28.36C68.8659 27.6933 67.8659 26.76 67.1459 25.56C66.4526 24.36 66.1059 22.9733 66.1059 21.4V16.72C66.1059 15.1466 66.4659 13.76 67.1859 12.56C67.9059 11.3333 68.9059 10.3866 70.1859 9.71998C71.4926 9.05331 72.9859 8.71998 74.6659 8.71998H78.2659C79.9459 8.71998 81.4259 9.05331 82.7059 9.71998C84.0126 10.3866 85.0259 11.3333 85.7459 12.56C86.4659 13.76 86.8259 15.1466 86.8259 16.72V21.4C86.8259 22.9733 86.4659 24.36 85.7459 25.56C85.0259 26.76 84.0126 27.6933 82.7059 28.36C81.4259 29 79.9326 29.32 78.2259 29.32H74.6259ZM78.1459 24.64C79.1326 24.64 79.9193 24.3066 80.5059 23.64C81.0926 22.9466 81.3859 22.0533 81.3859 20.96V17.08C81.3859 15.9866 81.0926 15.1066 80.5059 14.44C79.9193 13.7466 79.1459 13.4 78.1859 13.4H74.7459C73.7859 13.4 73.0126 13.7466 72.4259 14.44C71.8393 15.1066 71.5459 15.9866 71.5459 17.08V20.96C71.5459 22.0533 71.8393 22.9466 72.4259 23.64C73.0126 24.3066 73.7726 24.64 74.7059 24.64H78.1459Z" fill="#141414"/>
<path d="M97.5359 29C95.1626 29 93.4159 28.5066 92.2959 27.52C91.2026 26.5066 90.6559 24.9466 90.6559 22.84V0.999975H96.0959V22.52C96.0959 23.16 96.2426 23.6266 96.5359 23.92C96.8293 24.2133 97.2959 24.36 97.9359 24.36H100.096V29H97.5359Z" fill="#141414"/>
<path d="M123.775 29.32C121.722 29.32 119.909 28.88 118.335 28C116.762 27.12 115.535 25.88 114.655 24.28C113.802 22.6533 113.375 20.7866 113.375 18.68V11.32C113.375 9.21331 113.802 7.35998 114.655 5.75998C115.535 4.13331 116.762 2.87998 118.335 1.99998C119.935 1.11998 121.775 0.679977 123.855 0.679977H128.335C130.335 0.679977 132.095 1.07998 133.615 1.87998C135.135 2.67998 136.309 3.81331 137.135 5.27997C137.989 6.74664 138.415 8.43998 138.415 10.36H132.975C132.975 8.91998 132.549 7.75998 131.695 6.87998C130.842 5.99998 129.722 5.55998 128.335 5.55998H123.855C122.362 5.55998 121.162 6.11998 120.255 7.23998C119.349 8.33331 118.895 9.77331 118.895 11.56V18.44C118.895 20.2266 119.335 21.68 120.215 22.8C121.122 23.8933 122.309 24.44 123.775 24.44H128.495C129.855 24.44 130.975 23.9466 131.855 22.96C132.762 21.9733 133.215 20.7466 133.215 19.28V18.4H125.455V13.6H138.655V19.28C138.655 21.2266 138.229 22.96 137.375 24.48C136.522 26 135.322 27.1866 133.775 28.04C132.229 28.8933 130.469 29.32 128.495 29.32H123.775Z" fill="#141414"/>
<path d="M148.812 29.32C146.732 29.32 145.052 28.8 143.772 27.76C142.492 26.72 141.852 25.3466 141.852 23.64V22.16C141.852 20.48 142.519 19.1333 143.852 18.12C145.185 17.08 146.945 16.56 149.132 16.56H151.572C152.265 16.56 153.012 16.6533 153.812 16.84C154.612 17.0266 155.345 17.28 156.012 17.6V15.52C156.012 14.8533 155.785 14.32 155.332 13.92C154.905 13.4933 154.332 13.28 153.612 13.28H150.172C149.425 13.28 148.825 13.4533 148.372 13.8C147.919 14.1466 147.692 14.6133 147.692 15.2H142.412C142.412 13.2533 143.119 11.6933 144.532 10.52C145.972 9.31998 147.852 8.71998 150.172 8.71998H153.612C155.959 8.71998 157.852 9.34664 159.292 10.6C160.732 11.8266 161.452 13.4666 161.452 15.52V29H156.412V26.6C155.772 27.4266 154.985 28.0933 154.052 28.6C153.119 29.08 152.199 29.32 151.292 29.32H148.812ZM151.692 25.16C152.679 25.16 153.559 24.9066 154.332 24.4C155.105 23.8933 155.665 23.2133 156.012 22.36V21.68C155.585 21.36 154.985 21.1066 154.212 20.92C153.465 20.7333 152.665 20.64 151.812 20.64H149.292C148.652 20.64 148.132 20.8 147.732 21.12C147.332 21.44 147.132 21.8666 147.132 22.4V23.44C147.132 23.9466 147.345 24.36 147.772 24.68C148.225 25 148.812 25.16 149.532 25.16H151.692Z" fill="#141414"/>
<path d="M165.851 9.03998H170.891V11.6C171.398 10.8266 172.118 10.2 173.051 9.71998C174.011 9.21331 175.011 8.95998 176.051 8.95998H178.771V13.68H176.051C174.638 13.68 173.491 14.1066 172.611 14.96C171.731 15.8133 171.291 16.9066 171.291 18.24V29H165.851V9.03998Z" fill="#141414"/>
<path d="M188.259 29.32C186.579 29.32 185.085 28.9866 183.779 28.32C182.499 27.6533 181.499 26.72 180.779 25.52C180.085 24.32 179.739 22.9333 179.739 21.36V16.68C179.739 15.1066 180.085 13.72 180.779 12.52C181.499 11.32 182.499 10.3866 183.779 9.71998C185.059 9.05331 186.539 8.71998 188.219 8.71998H191.379C192.979 8.71998 194.392 9.03998 195.619 9.67998C196.845 10.32 197.792 11.2266 198.459 12.4C199.125 13.5466 199.459 14.88 199.459 16.4H194.059C194.059 15.4933 193.805 14.7733 193.299 14.24C192.819 13.68 192.179 13.4 191.379 13.4H188.299C187.365 13.4 186.605 13.7466 186.019 14.44C185.459 15.1066 185.179 15.9866 185.179 17.08V20.96C185.179 22.0533 185.472 22.9466 186.059 23.64C186.645 24.3066 187.405 24.64 188.339 24.64H191.419C192.272 24.64 192.952 24.3333 193.459 23.72C193.992 23.1066 194.259 22.2933 194.259 21.28H199.659C199.659 23.7066 198.899 25.6533 197.379 27.12C195.885 28.5866 193.899 29.32 191.419 29.32H188.259Z" fill="#141414"/>
<path d="M206.362 7.15998C205.322 7.15998 204.482 6.86664 203.842 6.27998C203.228 5.66664 202.922 4.86664 202.922 3.87998C202.922 2.89331 203.228 2.10664 203.842 1.51998C204.482 0.906642 205.322 0.599976 206.362 0.599976C207.402 0.599976 208.228 0.906642 208.842 1.51998C209.482 2.10664 209.802 2.89331 209.802 3.87998C209.802 4.86664 209.482 5.66664 208.842 6.27998C208.228 6.86664 207.402 7.15998 206.362 7.15998ZM203.642 9.03998H209.082V29H203.642V9.03998Z" fill="#141414"/>
<path d="M220.765 29.32C218.685 29.32 217.005 28.8 215.725 27.76C214.445 26.72 213.805 25.3466 213.805 23.64V22.16C213.805 20.48 214.472 19.1333 215.805 18.12C217.138 17.08 218.898 16.56 221.085 16.56H223.525C224.218 16.56 224.965 16.6533 225.765 16.84C226.565 17.0266 227.298 17.28 227.965 17.6V15.52C227.965 14.8533 227.738 14.32 227.285 13.92C226.858 13.4933 226.285 13.28 225.565 13.28H222.125C221.378 13.28 220.778 13.4533 220.325 13.8C219.872 14.1466 219.645 14.6133 219.645 15.2H214.365C214.365 13.2533 215.072 11.6933 216.485 10.52C217.925 9.31998 219.805 8.71998 222.125 8.71998H225.565C227.912 8.71998 229.805 9.34664 231.245 10.6C232.685 11.8266 233.405 13.4666 233.405 15.52V29H228.365V26.6C227.725 27.4266 226.938 28.0933 226.005 28.6C225.072 29.08 224.152 29.32 223.245 29.32H220.765ZM223.645 25.16C224.632 25.16 225.512 24.9066 226.285 24.4C227.058 23.8933 227.618 23.2133 227.965 22.36V21.68C227.538 21.36 226.938 21.1066 226.165 20.92C225.418 20.7333 224.618 20.64 223.765 20.64H221.245C220.605 20.64 220.085 20.8 219.685 21.12C219.285 21.44 219.085 21.8666 219.085 22.4V23.44C219.085 23.9466 219.298 24.36 219.725 24.68C220.178 25 220.765 25.16 221.485 25.16H223.645Z" fill="#141414"/>
</svg>
