<svg width="24" height="24" viewBox="0 0 24 24" fill="none" xmlns="http://www.w3.org/2000/svg">
<path d="M3.5 19C3.1 19 2.75 18.85 2.45 18.55C2.15 18.25 2 17.9 2 17.5V4.5C2 4.1 2.15 3.75 2.45 3.45C2.75 3.15 3.1 3 3.5 3H20.5C20.9 3 21.25 3.15 21.55 3.45C21.85 3.75 22 4.1 22 4.5V17.5C22 17.9 21.85 18.25 21.55 18.55C21.25 18.85 20.9 19 20.5 19H3.5ZM12 11.3C12.0833 11.3 12.1542 11.2875 12.2125 11.2625C12.2708 11.2375 12.3333 11.2083 12.4 11.175L20.25 6.05C20.3333 6 20.3958 5.93333 20.4375 5.85C20.4792 5.76667 20.5 5.675 20.5 5.575C20.5 5.35833 20.4042 5.1875 20.2125 5.0625C20.0208 4.9375 19.825 4.94167 19.625 5.075L12 9.95L4.4 5.075C4.2 4.94167 4 4.93333 3.8 5.05C3.6 5.16667 3.5 5.33333 3.5 5.55C3.5 5.65 3.525 5.74583 3.575 5.8375C3.625 5.92917 3.68333 6 3.75 6.05L11.6 11.175C11.6667 11.2083 11.7292 11.2375 11.7875 11.2625C11.8458 11.2875 11.9167 11.3 12 11.3Z" fill="url(#paint0_linear_42_331)"/>
<defs>
<linearGradient id="paint0_linear_42_331" x1="12" y1="3" x2="12" y2="19" gradientUnits="userSpaceOnUse">
<stop stop-color="#39C4FF"/>
<stop offset="1" stop-color="#2096EB"/>
</linearGradient>
</defs>
</svg>
