<svg width="30" height="30" viewBox="0 0 30 30" fill="none" xmlns="http://www.w3.org/2000/svg">
<path d="M26.25 26.25C26.25 26.4986 26.1512 26.7371 25.9754 26.9129C25.7996 27.0887 25.5611 27.1875 25.3125 27.1875C24.3189 27.1844 23.3669 26.7883 22.6643 26.0857C21.9617 25.3831 21.5656 24.4311 21.5625 23.4375V22.5C21.5625 22.0027 21.365 21.5258 21.0133 21.1742C20.6617 20.8225 20.1848 20.625 19.6875 20.625H18.2812V25.3125C18.2812 25.8098 18.4788 26.2867 18.8304 26.6383C19.1821 26.99 19.659 27.1875 20.1562 27.1875C20.4049 27.1875 20.6433 27.2863 20.8192 27.4621C20.995 27.6379 21.0938 27.8764 21.0938 28.125C21.0938 28.3736 20.995 28.6121 20.8192 28.7879C20.6433 28.9637 20.4049 29.0625 20.1562 29.0625C19.1626 29.0594 18.2106 28.6633 17.508 27.9607C16.8054 27.2581 16.4093 26.3061 16.4062 25.3125V20.625H13.5938V25.3125C13.5907 26.3061 13.1946 27.2581 12.492 27.9607C11.7894 28.6633 10.8374 29.0594 9.84375 29.0625C9.59511 29.0625 9.35665 28.9637 9.18084 28.7879C9.00502 28.6121 8.90625 28.3736 8.90625 28.125C8.90625 27.8764 9.00502 27.6379 9.18084 27.4621C9.35665 27.2863 9.59511 27.1875 9.84375 27.1875C10.341 27.1875 10.8179 26.99 11.1696 26.6383C11.5212 26.2867 11.7188 25.8098 11.7188 25.3125V20.625H10.3125C9.81522 20.625 9.33831 20.8225 8.98668 21.1742C8.63504 21.5258 8.4375 22.0027 8.4375 22.5V23.4375C8.43441 24.4311 8.03833 25.3831 7.33574 26.0857C6.63314 26.7883 5.68111 27.1844 4.6875 27.1875C4.43886 27.1875 4.2004 27.0887 4.02459 26.9129C3.84877 26.7371 3.75 26.4986 3.75 26.25C3.75 26.0014 3.84877 25.7629 4.02459 25.5871C4.2004 25.4113 4.43886 25.3125 4.6875 25.3125C5.18478 25.3125 5.66169 25.115 6.01333 24.7633C6.36496 24.4117 6.5625 23.9348 6.5625 23.4375V22.5C6.56327 21.8695 6.7225 21.2493 7.02556 20.6964C7.32862 20.1436 7.76579 19.6757 8.29688 19.3359C7.46867 18.7285 6.79518 17.9346 6.33098 17.0184C5.86679 16.1022 5.62493 15.0896 5.625 14.0625V13.125C5.6367 11.9605 5.94741 10.8185 6.52734 9.80859C6.24165 8.88358 6.15039 7.90948 6.25929 6.9475C6.36819 5.98553 6.67491 5.05648 7.16016 4.21875C7.24029 4.07509 7.3577 3.95571 7.50001 3.87321C7.64232 3.79071 7.80426 3.74814 7.96875 3.75C9.0608 3.74725 10.1383 4.00019 11.1151 4.48857C12.0918 4.97695 12.9407 5.68721 13.5938 6.5625H16.4062C17.0593 5.68721 17.9082 4.97695 18.8849 4.48857C19.8617 4.00019 20.9392 3.74725 22.0312 3.75C22.1957 3.74814 22.3577 3.79071 22.5 3.87321C22.6423 3.95571 22.7597 4.07509 22.8398 4.21875C23.3251 5.05648 23.6318 5.98553 23.7407 6.9475C23.8496 7.90948 23.7584 8.88358 23.4727 9.80859C24.0526 10.8185 24.3633 11.9605 24.375 13.125V14.0625C24.3751 15.0896 24.1332 16.1022 23.669 17.0184C23.2048 17.9346 22.5313 18.7285 21.7031 19.3359C22.2342 19.6757 22.6714 20.1436 22.9744 20.6964C23.2775 21.2493 23.4367 21.8695 23.4375 22.5V23.4375C23.4375 23.9348 23.635 24.4117 23.9867 24.7633C24.3383 25.115 24.8152 25.3125 25.3125 25.3125C25.5611 25.3125 25.7996 25.4113 25.9754 25.5871C26.1512 25.7629 26.25 26.0014 26.25 26.25Z" fill="url(#paint0_linear_42_341)"/>
<defs>
<linearGradient id="paint0_linear_42_341" x1="15" y1="3.74994" x2="15" y2="29.0625" gradientUnits="userSpaceOnUse">
<stop stop-color="#39C4FF"/>
<stop offset="1" stop-color="#2096EB"/>
</linearGradient>
</defs>
</svg>
