<svg width="30" height="30" viewBox="0 0 30 30" fill="none" xmlns="http://www.w3.org/2000/svg">
<path d="M24.8438 3.28125H5.15625C4.65897 3.28125 4.18206 3.47879 3.83042 3.83042C3.47879 4.18206 3.28125 4.65897 3.28125 5.15625V24.8438C3.28125 25.341 3.47879 25.8179 3.83042 26.1696C4.18206 26.5212 4.65897 26.7188 5.15625 26.7188H24.8438C25.341 26.7188 25.8179 26.5212 26.1696 26.1696C26.5212 25.8179 26.7188 25.341 26.7188 24.8438V5.15625C26.7188 4.65897 26.5212 4.18206 26.1696 3.83042C25.8179 3.47879 25.341 3.28125 24.8438 3.28125ZM11.25 20.625C11.25 20.8736 11.1512 21.1121 10.9754 21.2879C10.7996 21.4637 10.5611 21.5625 10.3125 21.5625C10.0639 21.5625 9.8254 21.4637 9.64959 21.2879C9.47377 21.1121 9.375 20.8736 9.375 20.625V13.125C9.375 12.8764 9.47377 12.6379 9.64959 12.4621C9.8254 12.2863 10.0639 12.1875 10.3125 12.1875C10.5611 12.1875 10.7996 12.2863 10.9754 12.4621C11.1512 12.6379 11.25 12.8764 11.25 13.125V20.625ZM10.3125 10.7812C10.0344 10.7812 9.76249 10.6988 9.53123 10.5443C9.29997 10.3897 9.11973 10.1701 9.01329 9.91315C8.90686 9.65619 8.87901 9.37344 8.93327 9.10065C8.98753 8.82787 9.12146 8.5773 9.31813 8.38063C9.5148 8.18396 9.76537 8.05003 10.0382 7.99577C10.3109 7.94151 10.5937 7.96936 10.8506 8.07579C11.1076 8.18223 11.3272 8.36247 11.4818 8.59373C11.6363 8.82499 11.7188 9.09687 11.7188 9.375C11.7188 9.74796 11.5706 10.1056 11.3069 10.3694C11.0431 10.6331 10.6855 10.7812 10.3125 10.7812ZM21.5625 20.625C21.5625 20.8736 21.4637 21.1121 21.2879 21.2879C21.1121 21.4637 20.8736 21.5625 20.625 21.5625C20.3764 21.5625 20.1379 21.4637 19.9621 21.2879C19.7863 21.1121 19.6875 20.8736 19.6875 20.625V16.4062C19.6875 15.7846 19.4406 15.1885 19.001 14.749C18.5615 14.3094 17.9654 14.0625 17.3438 14.0625C16.7221 14.0625 16.126 14.3094 15.6865 14.749C15.2469 15.1885 15 15.7846 15 16.4062V20.625C15 20.8736 14.9012 21.1121 14.7254 21.2879C14.5496 21.4637 14.3111 21.5625 14.0625 21.5625C13.8139 21.5625 13.5754 21.4637 13.3996 21.2879C13.2238 21.1121 13.125 20.8736 13.125 20.625V13.125C13.1244 12.8943 13.2088 12.6714 13.3622 12.4991C13.5156 12.3267 13.7271 12.217 13.9564 12.1909C14.1856 12.1648 14.4164 12.2241 14.6047 12.3575C14.7929 12.491 14.9253 12.6891 14.9766 12.9141C15.6109 12.484 16.3504 12.2349 17.1157 12.1935C17.8809 12.1521 18.643 12.3199 19.3201 12.6789C19.9972 13.0379 20.5637 13.5746 20.9587 14.2313C21.3538 14.888 21.5625 15.6399 21.5625 16.4062V20.625Z" fill="url(#paint0_linear_42_345)"/>
<defs>
<linearGradient id="paint0_linear_42_345" x1="15" y1="3.28125" x2="15" y2="26.7188" gradientUnits="userSpaceOnUse">
<stop stop-color="#39C4FF"/>
<stop offset="1" stop-color="#2096EB"/>
</linearGradient>
</defs>
</svg>
