<svg width="24" height="24" viewBox="0 0 24 24" fill="none" xmlns="http://www.w3.org/2000/svg">
<path d="M12 2.25C10.3067 2.24987 8.64255 2.69074 7.17141 3.52921C5.70026 4.36768 4.47285 5.57483 3.61001 7.03182C2.74717 8.4888 2.27866 10.1454 2.25061 11.8385C2.22255 13.5315 2.63592 15.2027 3.45001 16.6875L2.65313 19.5C2.57879 19.7563 2.57462 20.0278 2.64103 20.2863C2.70745 20.5447 2.84203 20.7806 3.03072 20.9693C3.21941 21.158 3.45529 21.2926 3.71374 21.359C3.97219 21.4254 4.24373 21.4212 4.50001 21.3469L7.31251 20.55C8.6159 21.2644 10.0654 21.6713 11.5501 21.7397C13.0349 21.8081 14.5156 21.5361 15.8791 20.9445C17.2427 20.353 18.4529 19.4575 19.4174 18.3266C20.3818 17.1956 21.0749 15.8592 21.4437 14.4193C21.8125 12.9795 21.8473 11.4744 21.5453 10.0191C21.2433 8.56374 20.6126 7.19672 19.7014 6.02249C18.7901 4.84826 17.6225 3.8979 16.2877 3.24406C14.9529 2.59022 13.4863 2.25021 12 2.25ZM14.2594 18H14.25C12.0611 17.9975 9.96271 17.1262 8.41581 15.5776C6.8689 14.0289 6.00001 11.9295 6.00001 9.74063C6.00249 8.84715 6.35917 7.99111 6.99183 7.3602C7.6245 6.72929 8.48152 6.375 9.37501 6.375C9.62061 6.37554 9.86173 6.44082 10.0741 6.56426C10.2864 6.68771 10.4624 6.86495 10.5844 7.07812L11.6813 9C11.8137 9.23017 11.8819 9.49171 11.8786 9.75725C11.8753 10.0228 11.8006 10.2826 11.6625 10.5094L10.9969 11.625C11.3316 12.1941 11.8059 12.6684 12.375 13.0031L13.4906 12.3375C13.7174 12.1994 13.9772 12.1247 14.2428 12.1214C14.5083 12.1181 14.7698 12.1863 15 12.3187L16.9219 13.4156C17.1351 13.5376 17.3123 13.7136 17.4357 13.926C17.5592 14.1383 17.6245 14.3794 17.625 14.625C17.625 15.5185 17.2707 16.3755 16.6398 17.0082C16.0089 17.6408 15.1529 17.9975 14.2594 18Z" fill="url(#paint0_linear_42_337)"/>
<path d="M12.7969 14.5031C12.6926 14.5641 12.5752 14.5993 12.4546 14.6059C12.3339 14.6124 12.2134 14.59 12.1031 14.5406C10.9243 14.0181 9.9819 13.0758 9.4594 11.8969C9.41 11.7866 9.38763 11.6661 9.39415 11.5455C9.40068 11.4248 9.4359 11.3074 9.4969 11.2031L10.3781 9.74063L9.31877 7.875C8.83215 7.88723 8.36957 8.08917 8.02978 8.43773C7.68998 8.78628 7.49987 9.25385 7.50002 9.74063C7.49879 10.6278 7.67247 11.5066 8.01114 12.3266C8.34981 13.1466 8.84682 13.8919 9.47373 14.5197C10.1007 15.1474 10.8452 15.6455 11.6647 15.9853C12.4843 16.3251 13.3628 16.5 14.25 16.5H14.2594C14.7462 16.5002 15.2137 16.31 15.5623 15.9702C15.9108 15.6304 16.1128 15.1679 16.125 14.6813L14.2594 13.6219L12.7969 14.5031Z" fill="url(#paint1_linear_42_337)"/>
<defs>
<linearGradient id="paint0_linear_42_337" x1="11.999" y1="2.25" x2="11.999" y2="21.75" gradientUnits="userSpaceOnUse">
<stop stop-color="#39C4FF"/>
<stop offset="1" stop-color="#2096EB"/>
</linearGradient>
<linearGradient id="paint1_linear_42_337" x1="11.8125" y1="7.875" x2="11.8125" y2="16.5" gradientUnits="userSpaceOnUse">
<stop stop-color="#39C4FF"/>
<stop offset="1" stop-color="#2096EB"/>
</linearGradient>
</defs>
</svg>
